<svg width="200" height="31" viewBox="0 0 200 31" fill="none" xmlns="http://www.w3.org/2000/svg">
<path fill-rule="evenodd" clip-rule="evenodd" d="M17.2488 0H0V30.7196H9.57784L17.2488 0ZM13.5357 30.7196L21.2066 0H49.9193V30.7196H13.5357Z" fill="#51A8DD"/>
<path d="M69.7043 20.1009H62.2682L60.3332 24.3196H57.5095L66.1044 5.85866L74.3955 24.3196H71.5268L69.7043 20.1009ZM68.6356 17.6372L66.0594 11.7311L63.3594 17.6372H68.6356Z" fill="#51A8DD"/>
<path d="M75.4643 18.7622C75.4643 17.1797 76.0305 15.8335 77.163 14.7235C78.2955 13.6135 79.6754 13.0586 81.3029 13.0586C82.9379 13.0586 84.3254 13.6173 85.4654 14.7348C86.5903 15.8523 87.1528 17.2247 87.1528 18.8522C87.1528 20.4947 86.5866 21.8709 85.4541 22.9809C84.3141 24.0834 82.9154 24.6346 81.2579 24.6346C79.6155 24.6346 78.2392 24.0721 77.1292 22.9472C76.0193 21.8372 75.4643 20.4422 75.4643 18.7622ZM78.0517 18.8072C78.0517 19.9022 78.3442 20.7684 78.9292 21.4059C79.5292 22.0509 80.3204 22.3734 81.3029 22.3734C82.2929 22.3734 83.0842 22.0547 83.6766 21.4172C84.2691 20.7797 84.5654 19.9285 84.5654 18.8635C84.5654 17.7985 84.2691 16.9472 83.6766 16.3098C83.0767 15.6648 82.2854 15.3423 81.3029 15.3423C80.3354 15.3423 79.5517 15.6648 78.9517 16.3098C78.3517 16.9547 78.0517 17.7872 78.0517 18.8072Z" fill="#51A8DD"/>
<path d="M92.5865 15.7248V24.3196H90.0553V15.7248H88.9753V13.3623H90.0553V9.34611H92.5865V13.3623H94.5552V15.7248H92.5865Z" fill="#51A8DD"/>
<path d="M95.9165 18.7622C95.9165 17.1797 96.4827 15.8335 97.6152 14.7235C98.7477 13.6135 100.128 13.0586 101.755 13.0586C103.39 13.0586 104.778 13.6173 105.918 14.7348C107.043 15.8523 107.605 17.2247 107.605 18.8522C107.605 20.4947 107.039 21.8709 105.906 22.9809C104.766 24.0834 103.368 24.6346 101.71 24.6346C100.068 24.6346 98.6914 24.0721 97.5814 22.9472C96.4715 21.8372 95.9165 20.4422 95.9165 18.7622ZM98.5039 18.8072C98.5039 19.9022 98.7964 20.7684 99.3814 21.4059C99.9814 22.0509 100.773 22.3734 101.755 22.3734C102.745 22.3734 103.536 22.0547 104.129 21.4172C104.721 20.7797 105.018 19.9285 105.018 18.8635C105.018 17.7985 104.721 16.9472 104.129 16.3098C103.529 15.6648 102.738 15.3423 101.755 15.3423C100.788 15.3423 100.004 15.6648 99.4039 16.3098C98.8039 16.9547 98.5039 17.7872 98.5039 18.8072Z" fill="#51A8DD"/>
<path d="M112.825 5.31866V16.906L116.391 13.3623H119.789L115.03 17.9635L120.137 24.3196H116.852L113.23 19.696L112.825 20.1009V24.3196H110.294V5.31866H112.825Z" fill="#51A8DD"/>
<path d="M124.3 13.3623V24.3196H121.769V13.3623H124.3ZM121.386 8.80611C121.386 8.36362 121.547 7.98113 121.87 7.65863C122.192 7.33614 122.579 7.17489 123.029 7.17489C123.486 7.17489 123.876 7.33614 124.199 7.65863C124.521 7.97363 124.682 8.35987 124.682 8.81736C124.682 9.27486 124.521 9.66485 124.199 9.98735C123.884 10.3098 123.497 10.4711 123.04 10.4711C122.582 10.4711 122.192 10.3098 121.87 9.98735C121.547 9.66485 121.386 9.27111 121.386 8.80611Z" fill="#51A8DD"/>
<path d="M130.116 15.7248V24.3196H127.585V15.7248H126.505V13.3623H127.585V9.34611H130.116V13.3623H132.085V15.7248H130.116Z" fill="#51A8DD"/>
<path d="M140.173 15.2298L138.081 16.3435C137.751 15.6685 137.342 15.331 136.855 15.331C136.622 15.331 136.423 15.4098 136.258 15.5673C136.093 15.7173 136.011 15.9123 136.011 16.1523C136.011 16.5723 136.498 16.9885 137.473 17.401C138.816 17.9785 139.72 18.511 140.185 18.9985C140.65 19.486 140.882 20.1422 140.882 20.9672C140.882 22.0247 140.492 22.9097 139.712 23.6221C138.955 24.2971 138.04 24.6346 136.967 24.6346C135.13 24.6346 133.828 23.7384 133.063 21.9459L135.223 20.9447C135.523 21.4697 135.752 21.8034 135.91 21.9459C136.217 22.2309 136.585 22.3734 137.012 22.3734C137.867 22.3734 138.295 21.9834 138.295 21.2034C138.295 20.7534 137.965 20.3334 137.305 19.9435C137.05 19.816 136.795 19.6922 136.54 19.5722C136.285 19.4522 136.026 19.3285 135.763 19.201C135.028 18.841 134.511 18.481 134.211 18.121C133.828 17.6635 133.637 17.0747 133.637 16.3548C133.637 15.4023 133.963 14.6148 134.616 13.9923C135.283 13.3698 136.093 13.0586 137.046 13.0586C138.448 13.0586 139.491 13.7823 140.173 15.2298Z" fill="#51A8DD"/>
<path d="M145.697 13.3623V19.651C145.697 21.4659 146.413 22.3734 147.846 22.3734C149.278 22.3734 149.994 21.4659 149.994 19.651V13.3623H152.526V19.7072C152.526 20.5847 152.417 21.3422 152.199 21.9797C151.989 22.5497 151.626 23.0634 151.108 23.5209C150.253 24.2634 149.166 24.6346 147.846 24.6346C146.533 24.6346 145.449 24.2634 144.595 23.5209C144.07 23.0634 143.698 22.5497 143.481 21.9797C143.271 21.4697 143.166 20.7122 143.166 19.7072V13.3623H145.697Z" fill="#51A8DD"/>
<path d="M155.721 13.3623H158.252V14.341C158.717 13.8535 159.129 13.5198 159.489 13.3398C159.857 13.1523 160.292 13.0586 160.794 13.0586C161.462 13.0586 162.159 13.276 162.887 13.711L161.728 16.0285C161.248 15.6835 160.779 15.511 160.322 15.511C158.942 15.511 158.252 16.5535 158.252 18.6385V24.3196H155.721V13.3623Z" fill="#51A8DD"/>
<path d="M167.229 13.3623V19.651C167.229 21.4659 167.945 22.3734 169.378 22.3734C170.81 22.3734 171.527 21.4659 171.527 19.651V13.3623H174.058V19.7072C174.058 20.5847 173.949 21.3422 173.732 21.9797C173.522 22.5497 173.158 23.0634 172.64 23.5209C171.785 24.2634 170.698 24.6346 169.378 24.6346C168.065 24.6346 166.982 24.2634 166.127 23.5209C165.602 23.0634 165.23 22.5497 165.013 21.9797C164.803 21.4697 164.698 20.7122 164.698 19.7072V13.3623H167.229Z" fill="#51A8DD"/>
<path d="M180.706 22.2834L175.779 13.3623H178.715L182.068 19.6622L185.195 13.3623H188.053L179.323 30.2821H176.432L180.706 22.2834Z" fill="#51A8DD"/>
<path d="M197.457 13.3623H200V24.3196H197.457V23.1722C196.415 24.1471 195.294 24.6346 194.094 24.6346C192.579 24.6346 191.326 24.0871 190.336 22.9922C189.354 21.8747 188.863 20.4797 188.863 18.8072C188.863 17.1647 189.354 15.796 190.336 14.701C191.319 13.606 192.549 13.0586 194.026 13.0586C195.301 13.0586 196.445 13.5835 197.457 14.6335V13.3623ZM191.45 18.8072C191.45 19.8572 191.731 20.7122 192.294 21.3722C192.871 22.0397 193.599 22.3734 194.476 22.3734C195.414 22.3734 196.171 22.0509 196.749 21.4059C197.326 20.7384 197.615 19.891 197.615 18.8635C197.615 17.836 197.326 16.9885 196.749 16.321C196.171 15.6685 195.421 15.3423 194.499 15.3423C193.629 15.3423 192.901 15.6723 192.316 16.3323C191.739 16.9997 191.45 17.8247 191.45 18.8072Z" fill="#51A8DD"/>
</svg>
