<svg width="300" height="132" viewBox="0 0 300 132" fill="none" xmlns="http://www.w3.org/2000/svg">
<path d="M17.117 35.6456V74.6861H8.87243V44.941C7.52528 48.228 5.96258 50.599 4.18434 52.0539L2.00195 40.657C5.01957 37.5316 7.49833 34.4332 9.43823 31.3617C11.432 28.2902 13.4527 24.5182 15.5004 20.0456L21.8859 24.8954V24.572H56.4808V33.7866H47.9937V60.541C47.9937 63.828 47.9129 66.226 47.7512 67.7348C47.5896 69.2975 47.1315 70.5908 46.3771 71.6146C45.6227 72.6923 44.6797 73.312 43.5481 73.4737C42.4704 73.6892 40.8269 73.797 38.6175 73.797C36.516 73.797 33.4445 73.6623 29.403 73.3928L29.0797 64.0975C33.9833 64.3669 36.7315 64.5016 37.3243 64.5016C38.402 64.5016 39.0217 64.34 39.1833 64.0167C39.345 63.6395 39.4258 62.5348 39.4258 60.7027V33.7866H21.8859V25.1378C20.5388 28.6943 18.9491 32.1969 17.117 35.6456ZM6.04341 24.6529L2.89107 15.7617C5.69315 13.4446 8.01025 11.1275 9.84238 8.81037C11.6745 6.43938 13.5875 3.58342 15.5812 0.242484L21.4818 5.33472C19.2186 9.53783 16.9553 13.0943 14.6921 16.0042C12.4828 18.914 9.59989 21.7969 6.04341 24.6529ZM23.4217 13.0135V3.8798H54.1367V13.0135H23.4217Z" fill="#0F2540"/>
<path d="M96.8953 23.6021V28.6943H123.731V23.6021H96.8953ZM96.8953 16.4083H123.731V11.5586H96.8953V16.4083ZM99.4819 40.5762H106.837V36.3731H100.775C100.56 37.343 100.128 38.7441 99.4819 40.5762ZM93.8238 52.5389H106.837V48.6591H95.5212C95.1979 49.5213 94.6321 50.8146 93.8238 52.5389ZM115.324 64.2591H135.612V72.827H85.0943V64.2591H106.837V59.9752H91.7222V54.0747C91.345 55.4757 90.3212 57.0384 88.6508 58.7628L83.8818 51.2457C87.2228 47.3659 90.0518 42.4083 92.3689 36.3731H88.6508V3.15233H132.056V36.3731H115.324V40.5762H133.673V48.6591H115.324V52.5389H131.49V59.9752H115.324V64.2591Z" fill="#0F2540"/>
<path d="M203.913 47.5275C206.284 41.2228 207.685 32.0622 208.116 20.0456H197.851C197.42 21.7161 196.8 24.1679 195.992 27.4011L199.791 26.3503C200.761 34.9721 202.135 42.0311 203.913 47.5275ZM208.763 56.0146C211.134 59.571 214.582 62.9928 219.109 66.2799L215.229 74.6861C210.11 71.3452 206.176 67.4923 203.428 63.1275C199.71 67.6001 194.187 71.4529 186.858 74.6861L184.676 68.5431C184.191 68.8125 183.463 68.9742 182.493 69.0281C180.068 69.2436 178.102 69.3514 176.593 69.3514C174.545 69.3514 172.821 69.2436 171.42 69.0281C169.049 68.7047 167.54 67.9234 166.893 66.684C166.301 65.4446 166.004 62.2384 166.004 57.0653V29.1793H180.068V13.256H165.6V4.36477H187.909V27.4819C190.118 19.8301 192.112 10.6694 193.89 0L201.731 1.29326C201.3 3.98757 200.734 7.16685 200.033 10.8311H218.947V20.0456H216.037C215.445 35.9959 213.02 47.9855 208.763 56.0146ZM174.087 37.828V56.3379C174.087 58.17 174.141 59.2747 174.249 59.6519C174.357 59.9752 174.734 60.1907 175.38 60.2985C175.865 60.4063 176.593 60.4602 177.563 60.4602C177.724 60.4602 178.506 60.4063 179.907 60.2985C180.877 60.1907 181.443 59.6249 181.604 58.6011C181.82 57.5234 181.981 53.9938 182.089 48.0125L189.687 48.8208C189.633 56.3109 189.391 61.3223 188.96 63.855C192.839 61.5918 196.1 58.7897 198.74 55.4488C196.207 49.6291 194.348 42.3006 193.163 33.4632C192.301 36.912 191.196 39.8757 189.849 42.3544L185.727 37.828H174.087Z" fill="#0F2540"/>
<path d="M268.738 24.3296H276.417V17.2974H270.92C270.435 19.1834 269.708 21.5275 268.738 24.3296ZM264.697 59.0861V36.6156H295.169V59.0861H264.697ZM272.537 51.3265H287.005V44.3752H272.537V51.3265ZM262.029 17.9441L256.694 24.2487C253.515 19.399 250.12 14.4684 246.51 9.457L251.926 3.15233C255.59 8.16374 258.958 13.0943 262.029 17.9441ZM246.025 31.3617H260.251V56.8229C261.059 59.0322 262.083 60.6757 263.322 61.7534C264.616 62.7773 266.69 63.5317 269.546 64.0167C272.456 64.5016 276.794 64.7441 282.56 64.7441H297.998L297.675 73.6353H282.317C274.881 73.6353 269.223 73.0695 265.343 71.9379C261.517 70.8063 258.742 68.8395 257.018 66.0374C254.97 69.055 252.222 72.0187 248.773 74.9286L245.055 66.4415C247.749 64.0705 250.147 61.5918 252.249 59.0052V40.2529H246.025V31.3617ZM284.5 24.3296H297.432V32.8166H260.978V24.3296H265.828L260.817 21.2581C263.565 15.1689 265.693 8.48705 267.202 1.21244L274.477 2.90985C274.1 4.52643 273.722 6.41244 273.345 8.56789H276.417V1.53575H284.5V8.56789H296.139V17.2974H284.5V24.3296Z" fill="#0F2540"/>
<path d="M7.67371 115.376H9.43553C10.7667 115.376 11.9543 115.167 12.9983 114.75C14.0424 114.332 14.9168 113.758 15.6215 113.027C16.3523 112.296 16.9004 111.435 17.2659 110.443C17.6574 109.425 17.8531 108.316 17.8531 107.115C17.8531 105.94 17.6574 104.844 17.2659 103.826C16.8743 102.808 16.3132 101.934 15.5823 101.203C14.8776 100.472 14.0032 99.898 12.9592 99.4804C11.9151 99.0628 10.7406 98.854 9.43553 98.854H7.67371V115.376ZM0 92.3548H11.354C13.3637 92.3548 15.243 92.7594 16.9918 93.5685C18.7667 94.3777 20.3066 95.4609 21.6117 96.8181C22.9428 98.1493 23.9869 99.7153 24.7438 101.516C25.5007 103.291 25.8792 105.157 25.8792 107.115C25.8792 109.046 25.5007 110.913 24.7438 112.714C24.013 114.489 22.982 116.055 21.6508 117.412C20.3458 118.769 18.8058 119.852 17.0309 120.661C15.2822 121.471 13.3898 121.875 11.354 121.875H0V92.3548Z" fill="#0F2540"/>
<path d="M44.7946 108.916C44.5597 107.924 44.0768 107.128 43.346 106.528C42.6152 105.927 41.7277 105.627 40.6837 105.627C39.5875 105.627 38.687 105.914 37.9822 106.489C37.3036 107.063 36.873 107.872 36.6902 108.916H44.7946ZM36.4945 113.027C36.4945 116.081 37.93 117.608 40.8012 117.608C42.3411 117.608 43.5026 116.981 44.2857 115.728H51.1372C49.7538 120.322 46.2954 122.619 40.762 122.619C39.0654 122.619 37.5124 122.371 36.103 121.875C34.6935 121.353 33.4798 120.622 32.4619 119.683C31.47 118.743 30.7 117.621 30.1519 116.316C29.6038 115.011 29.3297 113.549 29.3297 111.931C29.3297 110.26 29.5908 108.759 30.1128 107.428C30.6348 106.071 31.3787 104.922 32.3444 103.983C33.3102 103.043 34.4717 102.325 35.8289 101.83C37.2123 101.307 38.7653 101.046 40.4879 101.046C42.1845 101.046 43.7114 101.307 45.0687 101.83C46.4259 102.325 47.5744 103.056 48.514 104.022C49.4537 104.988 50.1714 106.175 50.6674 107.585C51.1633 108.968 51.4112 110.534 51.4112 112.283V113.027H36.4945Z" fill="#0F2540"/>
<path d="M68.7734 106.958C67.4684 106.28 66.1894 105.94 64.9366 105.94C64.2841 105.94 63.749 106.071 63.3314 106.332C62.9399 106.593 62.7441 106.945 62.7441 107.389C62.7441 107.624 62.7702 107.82 62.8224 107.976C62.9007 108.107 63.0443 108.237 63.2531 108.368C63.488 108.498 63.8142 108.616 64.2319 108.72C64.6756 108.825 65.2498 108.955 65.9545 109.112C67.9121 109.503 69.3738 110.208 70.3395 111.226C71.3052 112.218 71.7881 113.497 71.7881 115.063C71.7881 116.237 71.5532 117.294 71.0834 118.234C70.6136 119.174 69.961 119.97 69.1258 120.622C68.2906 121.249 67.2857 121.732 66.1111 122.071C64.9366 122.436 63.6446 122.619 62.2351 122.619C59.5206 122.619 56.8453 121.849 54.209 120.309L56.7931 115.298C58.7767 116.655 60.656 117.334 62.4309 117.334C63.0834 117.334 63.6185 117.19 64.0361 116.903C64.4537 116.616 64.6625 116.25 64.6625 115.807C64.6625 115.546 64.6234 115.337 64.5451 115.18C64.4929 114.998 64.3624 114.841 64.1536 114.71C63.9447 114.554 63.6315 114.423 63.2139 114.319C62.8224 114.188 62.3004 114.058 61.6479 113.927C59.4554 113.484 57.9154 112.831 57.028 111.97C56.1666 111.082 55.736 109.869 55.736 108.329C55.736 107.206 55.9448 106.201 56.3624 105.314C56.78 104.4 57.3803 103.63 58.1634 103.004C58.9464 102.378 59.886 101.895 60.9823 101.555C62.1046 101.216 63.3444 101.046 64.7017 101.046C66.9203 101.046 69.0736 101.477 71.1617 102.338L68.7734 106.958Z" fill="#0F2540"/>
<path d="M82.4682 101.79V121.875H75.3818V101.79H82.4682ZM74.912 94.0775C74.912 93.5294 75.0164 93.0204 75.2252 92.5506C75.434 92.0547 75.7211 91.624 76.0865 91.2586C76.4519 90.8932 76.8696 90.6061 77.3394 90.3973C77.8353 90.1884 78.3573 90.084 78.9054 90.084C79.4536 90.084 79.9625 90.1884 80.4324 90.3973C80.9283 90.6061 81.3589 90.8932 81.7244 91.2586C82.0898 91.624 82.3769 92.0547 82.5857 92.5506C82.7945 93.0204 82.8989 93.5294 82.8989 94.0775C82.8989 94.6256 82.7945 95.1476 82.5857 95.6436C82.3769 96.1134 82.0898 96.531 81.7244 96.8964C81.3589 97.2618 80.9283 97.5489 80.4324 97.7577C79.9625 97.9666 79.4536 98.071 78.9054 98.071C78.3573 98.071 77.8353 97.9666 77.3394 97.7577C76.8696 97.5489 76.4519 97.2618 76.0865 96.8964C75.7211 96.531 75.434 96.1134 75.2252 95.6436C75.0164 95.1476 74.912 94.6256 74.912 94.0775Z" fill="#0F2540"/>
<path d="M93.8883 111.735C93.8883 112.387 94.0057 113.001 94.2406 113.575C94.4755 114.123 94.7888 114.606 95.1803 115.024C95.5979 115.441 96.0808 115.767 96.6289 116.002C97.2031 116.237 97.8165 116.355 98.469 116.355C99.0954 116.355 99.6827 116.237 100.231 116.002C100.805 115.767 101.288 115.441 101.679 115.024C102.097 114.606 102.423 114.123 102.658 113.575C102.919 113.001 103.05 112.4 103.05 111.774C103.05 111.121 102.919 110.521 102.658 109.973C102.423 109.425 102.097 108.942 101.679 108.524C101.262 108.107 100.766 107.781 100.192 107.546C99.6436 107.311 99.0693 107.193 98.469 107.193C97.8426 107.193 97.2553 107.324 96.7072 107.585C96.1591 107.82 95.6762 108.146 95.2586 108.564C94.841 108.955 94.5016 109.425 94.2406 109.973C94.0057 110.521 93.8883 111.108 93.8883 111.735ZM109.784 101.79V120.505C109.784 121.627 109.719 122.632 109.588 123.52C109.458 124.407 109.275 125.19 109.04 125.869C108.727 126.73 108.231 127.526 107.552 128.257C106.9 129.014 106.104 129.666 105.164 130.214C104.224 130.763 103.154 131.193 101.954 131.506C100.779 131.82 99.5 131.976 98.1167 131.976C96.5506 131.976 95.115 131.78 93.81 131.389C92.5049 130.997 91.3565 130.449 90.3646 129.745C89.3989 129.066 88.6028 128.257 87.9764 127.317C87.35 126.404 86.9323 125.399 86.7235 124.303H94.7105C95.2064 125.634 96.3287 126.299 98.0775 126.299C99.5653 126.299 100.701 125.882 101.484 125.046C102.293 124.211 102.697 123.05 102.697 121.562V119.643C102.175 120.139 101.666 120.557 101.17 120.896C100.701 121.21 100.218 121.471 99.7219 121.679C99.2259 121.888 98.7039 122.032 98.1558 122.11C97.6077 122.214 97.0074 122.267 96.3548 122.267C94.9193 122.267 93.6012 122.019 92.4005 121.523C91.1999 121.027 90.1558 120.335 89.2684 119.448C88.4071 118.56 87.7284 117.503 87.2325 116.276C86.7627 115.024 86.5278 113.64 86.5278 112.126C86.5278 110.586 86.7888 109.164 87.3108 107.859C87.8328 106.528 88.5376 105.379 89.425 104.414C90.3385 103.422 91.4087 102.652 92.6354 102.104C93.8883 101.529 95.2455 101.242 96.7072 101.242C99.0824 101.242 101.079 102.13 102.697 103.905V101.79H109.784Z" fill="#0F2540"/>
<path d="M114.61 101.79H121.696V104.335C122.662 103.161 123.641 102.378 124.633 101.986C125.625 101.569 126.786 101.36 128.117 101.36C129.527 101.36 130.727 101.595 131.719 102.064C132.737 102.508 133.598 103.148 134.303 103.983C134.877 104.661 135.269 105.418 135.478 106.254C135.686 107.089 135.791 108.042 135.791 109.112V121.875H128.704V111.735C128.704 110.743 128.626 109.947 128.47 109.347C128.339 108.72 128.091 108.224 127.726 107.859C127.412 107.546 127.06 107.324 126.669 107.193C126.277 107.063 125.859 106.998 125.416 106.998C124.215 106.998 123.288 107.363 122.636 108.094C122.01 108.799 121.696 109.816 121.696 111.148V121.875H114.61V101.79Z" fill="#0F2540"/>
<path d="M170.789 99.9111C169.953 99.2325 169.118 98.7365 168.283 98.4233C167.448 98.084 166.639 97.9144 165.856 97.9144C164.864 97.9144 164.055 98.1493 163.428 98.6191C162.802 99.0889 162.489 99.7023 162.489 100.459C162.489 100.981 162.645 101.412 162.958 101.751C163.272 102.091 163.676 102.391 164.172 102.652C164.694 102.887 165.268 103.095 165.895 103.278C166.547 103.461 167.187 103.657 167.813 103.865C170.319 104.701 172.146 105.823 173.294 107.232C174.469 108.616 175.056 110.43 175.056 112.675C175.056 114.188 174.795 115.559 174.273 116.785C173.777 118.012 173.033 119.069 172.042 119.957C171.076 120.818 169.875 121.484 168.44 121.953C167.03 122.449 165.425 122.697 163.624 122.697C159.892 122.697 156.433 121.588 153.249 119.369L156.538 113.183C157.686 114.201 158.821 114.958 159.944 115.454C161.066 115.95 162.175 116.198 163.272 116.198C164.524 116.198 165.451 115.911 166.051 115.337C166.678 114.763 166.991 114.11 166.991 113.379C166.991 112.936 166.913 112.557 166.756 112.244C166.599 111.905 166.338 111.604 165.973 111.343C165.608 111.056 165.125 110.795 164.524 110.56C163.95 110.325 163.246 110.064 162.41 109.777C161.418 109.464 160.44 109.125 159.474 108.759C158.534 108.368 157.686 107.859 156.929 107.232C156.198 106.606 155.598 105.823 155.128 104.883C154.684 103.918 154.463 102.704 154.463 101.242C154.463 99.7806 154.697 98.4625 155.167 97.2879C155.663 96.0873 156.342 95.0693 157.203 94.2341C158.091 93.3728 159.161 92.7072 160.414 92.2374C161.693 91.7676 163.115 91.5326 164.681 91.5326C166.143 91.5326 167.67 91.7415 169.262 92.1591C170.854 92.5506 172.381 93.1379 173.843 93.9209L170.789 99.9111Z" fill="#0F2540"/>
<path d="M186.507 119.135L176.798 101.79H185.02L190.383 112.087L195.591 101.79H203.734L187.604 131.898H179.656L186.507 119.135Z" fill="#0F2540"/>
<path d="M218.536 106.958C217.231 106.28 215.952 105.94 214.699 105.94C214.047 105.94 213.511 106.071 213.094 106.332C212.702 106.593 212.507 106.945 212.507 107.389C212.507 107.624 212.533 107.82 212.585 107.976C212.663 108.107 212.807 108.237 213.016 108.368C213.25 108.498 213.577 108.616 213.994 108.72C214.438 108.825 215.012 108.955 215.717 109.112C217.675 109.503 219.136 110.208 220.102 111.226C221.068 112.218 221.551 113.497 221.551 115.063C221.551 116.237 221.316 117.294 220.846 118.234C220.376 119.174 219.724 119.97 218.888 120.622C218.053 121.249 217.048 121.732 215.874 122.071C214.699 122.436 213.407 122.619 211.998 122.619C209.283 122.619 206.608 121.849 203.972 120.309L206.556 115.298C208.539 116.655 210.418 117.334 212.193 117.334C212.846 117.334 213.381 117.19 213.799 116.903C214.216 116.616 214.425 116.25 214.425 115.807C214.425 115.546 214.386 115.337 214.308 115.18C214.255 114.998 214.125 114.841 213.916 114.71C213.707 114.554 213.394 114.423 212.976 114.319C212.585 114.188 212.063 114.058 211.41 113.927C209.218 113.484 207.678 112.831 206.79 111.97C205.929 111.082 205.498 109.869 205.498 108.329C205.498 107.206 205.707 106.201 206.125 105.314C206.542 104.4 207.143 103.63 207.926 103.004C208.709 102.378 209.649 101.895 210.745 101.555C211.867 101.216 213.107 101.046 214.464 101.046C216.683 101.046 218.836 101.477 220.924 102.338L218.536 106.958Z" fill="#0F2540"/>
<path d="M233.588 107.702V121.875H226.502V107.702H224.153V101.79H226.502V95.761H233.588V101.79H237.621V107.702H233.588Z" fill="#0F2540"/>
<path d="M255.349 108.916C255.114 107.924 254.631 107.128 253.901 106.528C253.17 105.927 252.282 105.627 251.238 105.627C250.142 105.627 249.241 105.914 248.537 106.489C247.858 107.063 247.427 107.872 247.245 108.916H255.349ZM247.049 113.027C247.049 116.081 248.485 117.608 251.356 117.608C252.896 117.608 254.057 116.981 254.84 115.728H261.692C260.308 120.322 256.85 122.619 251.317 122.619C249.62 122.619 248.067 122.371 246.657 121.875C245.248 121.353 244.034 120.622 243.016 119.683C242.025 118.743 241.255 117.621 240.706 116.316C240.158 115.011 239.884 113.549 239.884 111.931C239.884 110.26 240.145 108.759 240.667 107.428C241.189 106.071 241.933 104.922 242.899 103.983C243.865 103.043 245.026 102.325 246.383 101.83C247.767 101.307 249.32 101.046 251.042 101.046C252.739 101.046 254.266 101.307 255.623 101.83C256.98 102.325 258.129 103.056 259.069 104.022C260.008 104.988 260.726 106.175 261.222 107.585C261.718 108.968 261.966 110.534 261.966 112.283V113.027H247.049Z" fill="#0F2540"/>
<path d="M266.016 101.79H273.103V104.257C275.034 102.404 277.201 101.477 279.602 101.477C282.578 101.477 284.848 102.73 286.414 105.236C288.007 102.704 290.277 101.438 293.227 101.438C294.166 101.438 295.054 101.582 295.889 101.869C296.724 102.13 297.442 102.56 298.042 103.161C298.643 103.735 299.113 104.492 299.452 105.431C299.817 106.371 300 107.506 300 108.838V121.875H292.914V111.97C292.914 110.952 292.835 110.117 292.679 109.464C292.548 108.812 292.339 108.303 292.052 107.937C291.791 107.572 291.478 107.324 291.113 107.193C290.747 107.063 290.356 106.998 289.938 106.998C287.667 106.998 286.532 108.655 286.532 111.97V121.875H279.445V111.97C279.445 110.952 279.38 110.117 279.25 109.464C279.119 108.785 278.923 108.25 278.662 107.859C278.427 107.467 278.114 107.206 277.723 107.076C277.331 106.919 276.874 106.841 276.352 106.841C275.909 106.841 275.491 106.906 275.1 107.037C274.708 107.167 274.356 107.428 274.042 107.82C273.755 108.185 273.52 108.707 273.338 109.386C273.181 110.038 273.103 110.9 273.103 111.97V121.875H266.016V101.79Z" fill="#0F2540"/>
</svg>
